<svg xmlns="http://www.w3.org/2000/svg" xmlns:xlink="http://www.w3.org/1999/xlink" fill="none" version="1.1" width="28" height="28" viewBox="0 0 28 28"><g><g><rect x="0" y="0" width="28.000003814697266" height="28" rx="0" fill="#D8D8D8" fill-opacity="0"/></g><g><g><path d="M14,6.72818L20.2222,10.32855L20.2222,17.601300000000002L14,21.2017L7.77778,17.601300000000002L7.77778,10.400549999999999L14,6.80018M14,5C13.68777,5.000561229,13.38119,5.0843806,13.11111,5.243025L6.888891,8.84339C6.339408,9.16464,6.00065136,9.75807,6,10.400549999999999L6,17.601300000000002C6.000650406,18.2438,6.339406,18.8372,6.888889,19.1585L13.11111,22.7588C13.661159999999999,23.0804,14.33884,23.0804,14.88889,22.7588L21.1111,19.1585C21.660600000000002,18.8372,21.999299999999998,18.2438,22,17.601300000000002L22,10.400549999999999C21.999299999999998,9.75807,21.660600000000002,9.16464,21.1111,8.84339L14.88889,5.243025C14.61881,5.0843807,14.31223,5.000561229,14,5Z" fill="#999999" fill-opacity="1" style="mix-blend-mode:passthrough"/></g><g><path d="M13.380279999999999,11C13.51557,10.9999326498,13.638259999999999,11.0847726,13.69359,11.216642L15.8981,16.48424C15.99914,16.72647,15.833400000000001,16.99962,15.58513,17L14.979099999999999,17C14.8403,17.00003,14.715209999999999,16.91056,14.66236,16.77346L14.339780000000001,15.94062C14.2869,15.803709999999999,14.16203,15.7143,14.02338,15.71408L11.87378,15.71408C11.73498,15.71405,11.60989,15.803519999999999,11.55704,15.94062L11.23446,16.77346C11.18146,16.910429999999998,11.05646,16.99983,10.917715,17L10.343253,17C10.0950688,16.999769999999998,9.9291782,16.72688,10.0299414,16.4846L12.22793,11.217009000000001C12.28309,11.0849324,12.405850000000001,10.999903645,12.54124,11.000000163869L13.380279999999999,11ZM17.65683,11C17.84636,10.999999836131,18,11.164118,18,11.366569L18,16.6338C17.99981,16.836100000000002,17.84623,17,17.65683,17L17.04256,17C16.85304,17,16.6994,16.83588,16.6994,16.63343L16.6994,11.366935C16.6994,11.164484999999999,16.85304,11.000366575,17.04256,11.000366575L17.65683,11.000366575L17.65683,11ZM12.67885,13.06928L12.21626,14.26173C12.14297,14.45133,12.27337,14.65969,12.465399999999999,14.65982L13.42558,14.65982C13.62462,14.65982,13.759830000000001,14.44355,13.6833,14.24743L13.22654,13.06928C13.12565,12.80865,12.77974,12.80865,12.67885,13.06928Z" fill="#999999" fill-opacity="1" style="mix-blend-mode:passthrough"/></g></g></g></svg>