<svg xmlns="http://www.w3.org/2000/svg" xmlns:xlink="http://www.w3.org/1999/xlink" fill="none" version="1.1" width="28" height="28" viewBox="0 0 28 28"><g><g><rect x="0" y="0" width="28.000003814697266" height="28" rx="0" fill="#D8D8D8" fill-opacity="0"/></g><g><path d="M22.9937,8.45413C22.9853,7.79324,22.7165,7.16433,22.2503,6.703846C21.784,6.243358,21.1561,5.9896634,20.5051,6.000322861L15.5425,6.0728071C15.3304,6.074939,15.1288,6.162346,14.9797,6.31371L13.99685,7.30077L13.014,6.31371C12.86279,6.162346,12.66118,6.0770707999999996,12.451170000000001,6.0728069L7.48862,6.000322698C6.83129,5.9896633,6.19916,6.249754,5.730837,6.716637C5.262513,7.18565,5,7.8230900000000005,5,8.49037L5,19.633699999999997C5,21.0088,6.09836,22.1259,7.45502,22.1259L12.110949999999999,22.1259C12.68848,22.693,13.32062,23,13.99895,23C14.67728,23,15.3157,22.693,15.9163,22.1259L20.545,22.1259C21.8995,22.1259,23,21.0109,23,19.633699999999997L23,8.49037L22.9937,8.45413ZM14.79489,17.5125C14.79489,17.8089,14.63948,18.0839,14.38537,18.231C14.13126,18.380200000000002,13.82044,18.380200000000002,13.56633,18.231C13.31221,18.081699999999998,13.15681,17.8089,13.15681,17.5125L13.15681,11.394C13.15681,11.09767,13.31221,10.82265,13.56633,10.675550000000001C13.81834,10.52632,14.13126,10.52632,14.38537,10.675550000000001C14.63738,10.82479,14.79489,11.09767,14.79489,11.394L14.79489,17.5125Z" fill="#999999" fill-opacity="1" style="mix-blend-mode:passthrough"/></g></g></svg>