<svg xmlns="http://www.w3.org/2000/svg" xmlns:xlink="http://www.w3.org/1999/xlink" fill="none" version="1.1" width="28" height="28" viewBox="0 0 28 28"><g><g><rect x="0" y="0" width="28.000003814697266" height="28" rx="0" fill="#D8D8D8" fill-opacity="0"/></g><g><path d="M18.6125,4C18.9232,4,19.175,4.246045,19.175,4.549582L19.175,6.36248C19.175,6.66602,18.9232,6.91207,18.6125,6.91207L14.91406,6.91207L14.91406,7.9889399999999995L18.393,10.69462C18.564,10.82763,18.6652,11.02844,18.6687,11.24198L18.6687,11.25343L18.6687,15.3187L21.3687,15.3187C22.2697,15.3187,23,16.0322,23,16.9125L23,22.4062C23,23.2864,22.2697,24,21.3687,24L16.3625,24L16.3625,20.2028C16.3625,19.018900000000002,15.3802,18.0591,14.16838,18.0591C12.95659,18.0591,11.97424,19.018900000000002,11.97424,20.2028L11.97424,24L6.63125,24C5.730345,24,5,23.2864,5,22.4062L5,16.9125C5,16.0322,5.730345,15.3187,6.63125,15.3187L9.66873,15.3187L9.66875,11.25343C9.66875,11.03836,9.767949999999999,10.83474,9.9388,10.69912L9.94799,10.69192L13.45154,8.00096L13.45156,4.714289C13.45156,4.3197849999999995,13.77896,4.000000182303,14.18281,4.000000182303C14.22106,4.000000182303,14.2586,4.00286763,14.29526,4.00838723C14.32778,4.00279216,14.36073,3.999985598,14.39375,4L18.6125,4ZM14.16875,11.032969999999999C13.1125,11.032969999999999,12.25625,11.86937,12.25625,12.9011C12.25625,13.93283,13.1125,14.7692,14.16875,14.7692C15.225,14.7692,16.0813,13.93283,16.0813,12.9011C16.0813,11.86937,15.225,11.03298,14.16875,11.032969999999999Z" fill="#999999" fill-opacity="1" style="mix-blend-mode:passthrough"/></g></g></svg>