<svg xmlns="http://www.w3.org/2000/svg" xmlns:xlink="http://www.w3.org/1999/xlink" fill="none" version="1.1" width="28" height="28" viewBox="0 0 28 28"><g><g><rect x="0" y="0" width="28.000003814697266" height="28" rx="0" fill="#D8D8D8" fill-opacity="0"/></g><g><path d="M6.000000509986,17.05L21.9715,17.05L21.9715,12.233329999999999L6,12.233329999999999L6.000000509986,17.05ZM18.6631,13.93333C19.0624,13.93333,19.3761,14.245,19.404600000000002,14.61333C19.404600000000002,15.01,19.090899999999998,15.32167,18.720100000000002,15.35C18.3494,15.37833,18.0071,15.03833,17.9786,14.67C17.9786,14.27333,18.292299999999997,13.93333,18.6631,13.93333ZM16.381500000000003,13.93333C16.6667,13.93333,16.9234,14.10333,17.037399999999998,14.35833C17.1515,14.61333,17.0945,14.925,16.8948,15.12333C16.6952,15.32167,16.381500000000003,15.37833,16.1248,15.29333C15.86809,15.18,15.66845,14.925,15.66845,14.64167C15.69697,14.245,16.0107,13.93333,16.381500000000003,13.93333ZM8.28164,13.93333L12.27451,13.93333L12.27451,15.35L8.28164,15.35L8.28164,13.93333ZM20.773600000000002,6L7.22638,6C6.57041,6,6.0285203,6.538333,6.0285203,7.1899999999999995L6.0285203,10.81667L22,10.81667L22,7.1899999999999995C21.9715,6.538333,21.4296,5.99999987334,20.773600000000002,6ZM12.27451,9.11667L8.28164,9.11667L8.28164,7.7L12.27451,7.7L12.27451,9.11667ZM16.438499999999998,9.11667C16.181800000000003,9.11667,15.92513,9.00333,15.78253,8.77667C15.63993,8.55,15.63993,8.295,15.75401,8.06833C15.86809,7.84167,16.1248,7.7,16.381500000000003,7.7C16.752200000000002,7.7,17.066000000000003,8.01167,17.0945,8.379999999999999C17.122999999999998,8.77667,16.8378,9.08833,16.438499999999998,9.11667ZM18.720100000000002,9.11667C18.3209,9.11667,18.0071,8.805,17.9786,8.43667C17.9786,8.04,18.292299999999997,7.72833,18.6631,7.7C19.0624,7.7,19.3761,8.01167,19.404600000000002,8.379999999999999C19.404600000000002,8.77667,19.090899999999998,9.11667,18.720100000000002,9.11667ZM7.19786,18.1833L6.000000509986,18.1833L6.000000509986,22.15C6.000000509986,22.6317,6.370767,23,6.855615,23L21.1159,23C21.572200000000002,23,21.9715,22.6317,21.9715,22.15L21.9715,18.1833L7.19786,18.1833ZM12.27451,21.3L8.28164,21.3L8.28164,19.8833L12.27451,19.8833L12.27451,21.3ZM16.41,21.3C16.0107,21.3,15.69697,20.988300000000002,15.69697,20.5917C15.69697,20.195,16.0107,19.8833,16.41,19.8833C16.8093,19.8833,17.122999999999998,20.195,17.122999999999998,20.5917C17.122999999999998,20.988300000000002,16.8093,21.3,16.41,21.3ZM18.6916,21.3C18.292299999999997,21.3,17.9786,20.988300000000002,17.9786,20.5917C17.9786,20.195,18.292299999999997,19.8833,18.6916,19.8833C19.090899999999998,19.8833,19.404600000000002,20.195,19.404600000000002,20.5917C19.404600000000002,20.988300000000002,19.090899999999998,21.3,18.6916,21.3Z" fill="#999999" fill-opacity="1" style="mix-blend-mode:passthrough"/></g></g></svg>