<svg xmlns="http://www.w3.org/2000/svg" xmlns:xlink="http://www.w3.org/1999/xlink" fill="none" version="1.1" width="28" height="28" viewBox="0 0 28 28"><g><g><rect x="0" y="0" width="28.000003814697266" height="28" rx="0" fill="#D8D8D8" fill-opacity="0"/></g><g><path d="M21.1948,15.62714L17.7439,14.87714C18.8425,14.32,19.5965,13.18,19.5965,11.87714L19.5965,10.37714C19.5965,8.51714,18.067,7,16.2015,7C14.63763,7,13.31498,8.07143,12.927240000000001,9.51143L12.91431,9.56286C12.897079999999999,9.63571,12.879850000000001,9.70429,12.86692,9.77714C12.85831,9.82,12.854,9.85857,12.849689999999999,9.90143C12.84107,9.957139999999999,12.832460000000001,10.00857,12.82815,10.06429C12.81953,10.16714,12.81091,10.27,12.81091,10.37286L12.81091,11.87286C12.81091,12.014289999999999,12.82384,12.15571,12.84107,12.292860000000001C12.845379999999999,12.34429,12.85831,12.39143,12.86692,12.44286C12.88416,12.52857,12.90139,12.61,12.922930000000001,12.69571C12.93586,12.75571,12.95309,12.81143,12.970320000000001,12.87143C13.24382,13.73887,13.85515,14.46122,14.66778,14.87714L14.35759,14.94571L11.221160000000001,15.62714C10.17535,15.84761,9.42769,16.76657,9.42891,17.83L9.42891,20.5C9.42891,21.3271,10.10531,22,10.936810000000001,22L21.4921,22C22.3236,22,23,21.3271,23,20.5L23,17.825699999999998C22.9871,16.76286,22.2374,15.84143,21.1948,15.62714ZM12.091429999999999,14.11857C11.72092,13.44571,11.51412,12.67857,11.51412,11.87714L11.51412,10.37714C11.51412,9.62714,11.695070000000001,8.92429,12.01388,8.29429C11.58679,8.03998,11.09853,7.9052240000000005,10.60077,7.904286C9.058399999999999,7.904286,7.8003800000000005,9.15571,7.8003800000000005,10.69L7.8003800000000005,11.92857C7.8003800000000005,13.004290000000001,8.42078,13.94286,9.32982,14.40571L6.48205,15.02286C5.620392,15.20286,5,15.96143,5,16.84L5,19.0471C5.000000154076,19.7329,5.5557680000000005,20.2857,6.24509,20.2857L8.1235,20.2857L8.1235,17.825699999999998C8.1235,16.162860000000002,9.30828,14.70572,10.932500000000001,14.36714L12.091429999999999,14.11857Z" fill="#999999" fill-opacity="1" style="mix-blend-mode:passthrough"/></g></g></svg>