<svg xmlns="http://www.w3.org/2000/svg" xmlns:xlink="http://www.w3.org/1999/xlink" fill="none" version="1.1" width="28" height="28" viewBox="0 0 28 28"><g><g><rect x="0" y="0" width="28.000003814697266" height="28" rx="0" fill="#D8D8D8" fill-opacity="0"/></g><g><path d="M5.96531,23C5.421166,22.9602,5,22.5071,5,21.9615C5.000000165054,21.4158,5.421166,20.962699999999998,5.96531,20.9229L22.0347,20.9229C22.5788,20.962699999999998,23,21.4158,23,21.9615C23,22.5071,22.5788,22.9602,22.0347,23L5.96531,23ZM19.1423,18.8458C18.7725,18.8338,18.4831,18.5232,18.4971,18.1535L18.4971,8.46042C18.4831,8.09066,18.7725,7.78008,19.1423,7.76806L22.3559,7.76806C22.7248,7.7808,23.0126,8.09165,22.997,8.46042L22.997,18.1535C23.0126,18.522199999999998,22.7248,18.8331,22.3559,18.8458L19.1423,18.8458ZM12.393889999999999,18.8458C12.016860000000001,18.8206,11.729700000000001,18.497700000000002,11.74868,18.1202L11.74868,5.729748C11.72734,5.350731,12.01515,5.0252134999999996,12.393889999999999,5L15.6075,5C15.9846,5.0273729,16.27,5.352241,16.2485,5.729748L16.2485,18.1202C16.2676,18.4962,15.9829,18.8185,15.6075,18.8458L12.393889999999999,18.8458ZM5.64132,18.8458C5.322011,18.875799999999998,5.0372503,18.645200000000003,5.000261116,18.3266L5.000261116,11.05816C5.0372506,10.739550000000001,5.322011,10.508890000000001,5.64132,10.53889L8.85492,10.53889C9.17553,10.507249999999999,9.46245,10.73816,9.50013,11.05816L9.50013,18.3266C9.46245,18.6466,9.17553,18.877499999999998,8.85492,18.8458L5.64132,18.8458Z" fill="#999999" fill-opacity="1" style="mix-blend-mode:passthrough"/></g></g></svg>