<svg xmlns="http://www.w3.org/2000/svg" xmlns:xlink="http://www.w3.org/1999/xlink" fill="none" version="1.1" width="28" height="28" viewBox="0 0 28 28"><g><g><rect x="0" y="0" width="28.000003814697266" height="28" rx="0" fill="#D8D8D8" fill-opacity="0"/></g><g><path d="M11.246,6.67518L10.7996,6.67518C10.35766,6.67502,9.99948,6.30006,9.99948,5.837589C9.99948,5.375114,10.35766,5.000159653,10.7996,5L17.200400000000002,5C17.6423,5.000159727,18.000500000000002,5.375114,18.000500000000002,5.837589C18.000500000000002,6.30006,17.6423,6.67502,17.200400000000002,6.67518L16.753999999999998,6.67518L16.753999999999998,7.85308C16.753999999999998,9.32231,16.7588,9.917539999999999,16.8956,10.48137C17.032400000000003,11.04646,17.3,11.573879999999999,17.9708,12.86982L18.8876,14.64169C19.6916,16.1938,20.3372,17.442,20.6876,18.451700000000002C21.0452,19.4839,21.1736,20.486,20.6492,21.4002L20.648,21.4039L20.636,21.4215L20.636,21.4253C20.1068,22.3307,19.201999999999998,22.6835,18.1592,22.843C17.1368,23,15.7712,23,14.069600000000001,23L13.930399999999999,23C12.227599999999999,23,10.863199999999999,23,9.8408,22.843C8.798,22.6835,7.893203,22.3307,7.365204,21.424L7.362804,21.4215L7.350804,21.4002C6.826404,20.486,6.9548042,19.4839,7.312404,18.451700000000002C7.6628039999999995,17.442,8.3084,16.1951,9.112400000000001,14.64295L10.028,12.86982C10.6988,11.575140000000001,10.9664,11.04646,11.103200000000001,10.48137C11.24,9.917539999999999,11.2448,9.32231,11.2448,7.85308L11.2448,6.67518L11.246,6.67518ZM12.802399999999999,6.67518L12.802399999999999,7.96358C12.802399999999999,9.288409999999999,12.802399999999999,10.09837,12.6104,10.885729999999999C12.4424,11.585180000000001,12.1304,12.229379999999999,11.6384,13.18376C12.3128,13.28296,13.1156,13.7388,14,14.26622C15.386,15.0938,16.387999999999998,14.90666,17.0048,14.42696L16.5536,13.55421C15.95,12.387609999999999,15.5792,11.673079999999999,15.3896,10.885729999999999C15.1976,10.09962,15.1976,9.288409999999999,15.1976,7.96358L15.1976,6.67518L12.802399999999999,6.67518ZM11.39,16.541600000000003C10.97793,16.6735,10.73958,17.1231,10.85077,17.558799999999998C10.96196,17.9944,11.38278,18.2598,11.802800000000001,18.159100000000002L11.809999999999999,18.1578C12.22208,18.0259,12.460429999999999,17.5764,12.34924,17.140700000000002C12.238050000000001,16.705,11.81723,16.439700000000002,11.3972,16.540399999999998L11.39,16.541600000000003ZM15.6272,19.241500000000002C15.73974,19.6874,16.17719,19.9526,16.602800000000002,19.833L16.608800000000002,19.8305C17.0124,19.6922,17.2426,19.2482,17.1333,18.8187C17.023899999999998,18.3893,16.613039999999998,18.124000000000002,16.197200000000002,18.2143L16.189999999999998,18.215600000000002C15.76424,18.3368,15.5125,18.7957,15.6272,19.241500000000002Z" fill="#999999" fill-opacity="1" style="mix-blend-mode:passthrough"/></g></g></svg>