<svg xmlns="http://www.w3.org/2000/svg" xmlns:xlink="http://www.w3.org/1999/xlink" fill="none" version="1.1" width="28" height="28" viewBox="0 0 28 28"><g><g><rect x="0" y="0" width="28.000003814697266" height="28" rx="0" fill="#D8D8D8" fill-opacity="0"/></g><g><path d="M11.33054,8.62692L16.6695,8.62692C17.407600000000002,8.62692,18.0073,8.03951,18.0073,7.31654L18.0073,7.31038C18.0073,6.587411,17.407600000000002,6,16.6695,6L11.33054,6C10.5924,6,9.99266,6.587411,9.99266,7.31038L9.99266,7.31654C9.99266,8.03951,10.5924,8.62692,11.33054,8.62692ZM19.8527,7.296L18.8965,7.296L18.8965,7.31243C18.8965,8.51806,17.8983,9.49776,16.665300000000002,9.49776L11.33473,9.49776C10.1038,9.49776,9.10354,8.52012,9.10354,7.31243L9.10354,7.296L8.147310000000001,7.296C6.962516,7.296,6,8.23668,6,9.39918L6,20.8968C6,22.0573,6.960419,23,8.147310000000001,23L19.8527,23C21.0375,23,22,22.0593,22,20.8968L22,9.39918C21.9979,8.23668,21.0375,7.296,19.8527,7.296ZM17.755699999999997,18.005000000000003L10.244299999999999,18.005000000000003C9.94862,18.005000000000003,9.70747,17.7688,9.70747,17.4792C9.70747,17.1896,9.94862,16.953400000000002,10.244299999999999,16.953400000000002L17.755699999999997,16.953400000000002C18.0514,16.953400000000002,18.2925,17.1896,18.2925,17.4792C18.2925,17.7688,18.0535,18.005000000000003,17.755699999999997,18.005000000000003ZM17.7872,13.800650000000001L10.21284,13.800650000000001C9.93395,13.800650000000001,9.70747,13.56446,9.70747,13.27486C9.70747,12.98526,9.93394,12.74906,10.21284,12.74906L17.7893,12.74906C18.068199999999997,12.74906,18.294600000000003,12.98526,18.294600000000003,13.27486C18.2925,13.56446,18.0661,13.800650000000001,17.7872,13.800650000000001Z" fill="#999999" fill-opacity="1" style="mix-blend-mode:passthrough"/></g></g></svg>