<svg xmlns="http://www.w3.org/2000/svg" xmlns:xlink="http://www.w3.org/1999/xlink" fill="none" version="1.1" width="28" height="28" viewBox="0 0 28 28"><g><g><rect x="0" y="0" width="28.000003814697266" height="28" rx="0" fill="#D8D8D8" fill-opacity="0"/></g><g><path d="M22.1259,11.40166L5.874204,11.40166C5.331275,11.40166,4.9432883,11.91503,5.00680959,12.54026L6.30075,20.185000000000002C6.34675,20.6373,6.75164,21,7.20563,21L20.7944,21C21.2484,21,21.6533,20.6373,21.6992,20.185000000000002L22.9932,12.54026C23.0567,11.91503,22.6688,11.40166,22.1259,11.40166ZM20.3684,8.65363L12.554179999999999,8.65363L11.27009,7L7.666980000000001,7.000000323588C7.12401,7.000000323588,6.6838999999999995,7.431761,6.6838999999999995,7.964279L6.6838999999999995,9.361509999999999L21.3162,9.361509999999999C21.2016,8.95343,20.8208,8.65363,20.3684,8.65363ZM22.207,10.95551L22.2541,10.53579L5.7459,10.53579L5.793005,10.95551L22.207,10.95551ZM21.8638,10.17336L21.9252,9.73785L6.07486,9.73785L6.13625,10.17336L21.8638,10.17336Z" fill="#999999" fill-opacity="1" style="mix-blend-mode:passthrough"/></g></g></svg>