<svg xmlns="http://www.w3.org/2000/svg" xmlns:xlink="http://www.w3.org/1999/xlink" fill="none" version="1.1" width="28" height="28" viewBox="0 0 28 28"><g><g><rect x="0" y="0" width="28.000003814697266" height="28" rx="0" fill="#D8D8D8" fill-opacity="0"/></g><g><path d="M21.9236,13.37861C21.8352,13.0009,21.549,12.70113,21.176299999999998,12.59592L20.918799999999997,12.53669C19.6021,12.1359,18.8248,10.77657,19.1456,9.43553L19.221600000000002,9.19015C19.316200000000002,8.81444,19.201700000000002,8.41677,18.921799999999998,8.14938C18.6263,7.927223,18.3144,7.727807,17.988799999999998,7.552838C17.6727,7.358974,17.342399999999998,7.189263,17.0009,7.045145C16.631,6.9335105,16.229799999999997,7.0323955,15.95382,7.303222L15.77227,7.497838C14.77361,8.44769,13.20763,8.44769,12.20897,7.497838L12.03587,7.307453C11.759879999999999,7.0366262,11.358699999999999,6.9377413,10.98883,7.0493757C10.64443,7.191595,10.311340000000001,7.359902,9.99246,7.552838C9.66658,7.730495,9.354659999999999,7.932746,9.05941,8.15784C8.776440000000001,8.42336,8.659980000000001,8.8221,8.75543,9.19861L8.831430000000001,9.44399C9.14901,10.783809999999999,8.36983,12.139569999999999,7.054,12.53669L6.80068,12.59592C6.42966,12.702449999999999,6.145306,13.00197,6.0576215,13.37861C6.01088,13.74897,5.99253124,14.12237,6.0027365,14.49554C5.99345679,14.86166,6.0118041,15.22796,6.0576215,15.59131C6.139299,15.97562,6.424535,16.284190000000002,6.80068,16.39516L7.04555,16.45016C8.371410000000001,16.845750000000002,9.15619,18.2122,8.831430000000001,19.5598L8.75543,19.8052C8.659980000000001,20.1817,8.776440000000001,20.580399999999997,9.05941,20.8459C9.35435,21.0715,9.6663,21.273699999999998,9.99246,21.4509C10.31021,21.6384,10.64191,21.801099999999998,10.98461,21.9375C11.35374,22.049300000000002,11.75433,21.9521,12.031649999999999,21.6836L12.20475,21.514400000000002C13.205390000000001,20.5613,14.77585,20.5613,15.7765,21.514400000000002L15.94959,21.700499999999998C16.2269,21.969099999999997,16.627499999999998,22.066200000000002,16.9966,21.9544C17.3393,21.8097,17.6709,21.64,17.988799999999998,21.4467C18.314799999999998,21.2693,18.6267,21.067,18.921799999999998,20.8417C19.204,20.575699999999998,19.3203,20.1774,19.2258,19.8009L19.1498,19.5471C18.825,18.1995,19.6098,16.83306,20.9357,16.43746L21.1806,16.382469999999998C21.5559,16.27662,21.843,15.97272,21.927799999999998,15.59131C21.9794,15.22698,22.0034,14.859259999999999,21.9996,14.49131C22.0024,14.119019999999999,21.977,13.747060000000001,21.9236,13.37861ZM13.97795,16.90285C12.55452,16.90753,11.39726,15.75416,11.39414,14.32774C11.39103,12.90132,12.54325,11.74289,13.96669,11.74132C15.39013,11.73977,16.5449,12.89566,16.5449,14.32208C16.5472,15.74506,15.39796,16.90052,13.97795,16.90285Z" fill="#999999" fill-opacity="1" style="mix-blend-mode:passthrough"/></g></g></svg>