<svg xmlns="http://www.w3.org/2000/svg" xmlns:xlink="http://www.w3.org/1999/xlink" fill="none" version="1.1" width="28" height="28" viewBox="0 0 28 28"><g><g><rect x="0" y="0" width="28.000003814697266" height="28" rx="0" fill="#D8D8D8" fill-opacity="0"/></g><g><path d="M21.2181,13.59434L10.18751,15.5732C9.78181,15.6466,9.39413,15.3691,9.322009999999999,14.95638L8.093630000000001,7.8687000000000005C8.0215,7.45596,8.29423,7.06156,8.69993,6.9881899999999995L19.7238,5.0116143C20.2287,4.922187,20.6704,5.362444,20.5916,5.876078L20.1047,9.07941C20.079900000000002,9.2445,20.1092,9.41189,20.1859,9.55865L21.7433,12.48681C21.989,12.94083,21.7208,13.50491,21.2181,13.59434ZM22.9649,22.2115L22.1625,18.535800000000002C22.016,17.8639,21.43,17.387,20.7538,17.387L13.25959,17.387C12.86065,17.387,12.53834,17.7149,12.53834,18.1207C12.53834,18.526600000000002,12.86065,18.8545,13.25959,18.8545L20.7561,18.8545L21.5585,22.5302L6.44602,22.5302L7.24841,18.8568L8.20858,18.8568C8.607520000000001,18.8568,8.929829999999999,18.5289,8.929829999999999,18.122999999999998C8.929829999999999,17.7172,8.607520000000001,17.3893,8.20858,17.3893L7.24616,17.3893C6.56999,17.3893,5.98397,17.8662,5.837466,18.5381L5.0350737,22.2137C4.834476,23.1309,5.519664,24,6.44377,24L21.5562,24C22.4803,23.9977,23.1655,23.1287,22.9649,22.2115Z" fill="#999999" fill-opacity="1" style="mix-blend-mode:passthrough"/></g></g></svg>